<?xml version="1.0" encoding="UTF-8"?>
<!DOCTYPE svg PUBLIC "-//W3C//DTD SVG 1.1//EN" "http://www.w3.org/Graphics/SVG/1.1/DTD/svg11.dtd">
<!-- Creator: CorelDRAW -->
<svg xmlns="http://www.w3.org/2000/svg" xml:space="preserve" width="38.9389mm" height="33.1446mm" version="1.1" style="shape-rendering:geometricPrecision; text-rendering:geometricPrecision; image-rendering:optimizeQuality; fill-rule:evenodd; clip-rule:evenodd"
viewBox="0 0 122.27 104.08"
 xmlns:xlink="http://www.w3.org/1999/xlink"
 xmlns:xodm="http://www.corel.com/coreldraw/odm/2003">
 <defs>
  <style type="text/css">
   <![CDATA[
    .fil0 {fill:#FEFEFE}
   ]]>
  </style>
 </defs>
 <g id="Camada_x0020_1">
  <metadata id="CorelCorpID_0Corel-Layer"/>
  <g id="_2873172928096">
   <g>
    <path class="fil0" d="M122.27 31.83l0 -0.53c-1.35,-0.77 -0.64,-0.28 -1.72,-1.41l-9.98 -9.64c-3.5,-3.07 -8.61,-6.46 -13.14,-9.37 -9.96,-6.41 -19.5,-10.62 -34.02,-10.88 -26.47,-0.48 -52.34,12.35 -63.41,26.26 1.87,2.66 4.31,4.78 6.31,7.3l6.34 6.94c1.68,-1.03 2.89,-2.84 4.69,-4.29 5.54,-4.48 8.57,-7.08 15.93,-10.39 19.26,-8.67 37.88,-8.5 55.56,2.77 5.02,3.2 10.46,7.88 14.27,12.05 1.36,1.48 3.07,2.71 4.21,4.06l14.04 -12.22c0.7,-0.57 -0.03,-0.11 0.91,-0.66z"/>
    <path class="fil0" d="M34.21 65.02c1.12,1.15 1.89,2.19 2.71,3.44 1.6,-0.73 1.14,-0.78 2.85,-2.14l7.67 -5.73c3.7,-2.35 8.52,-4.49 14.02,-4.03 10.39,0.87 17.27,10.32 22.08,13.64l7.01 -6.24c1.39,-1.1 2.17,-2.09 3.51,-3.18 1.41,-1.15 1.83,-1.29 3.31,-2.91 -1.36,-2.92 -10.3,-10.83 -13.92,-13.34 -5.35,-3.72 -12.37,-6.38 -20.51,-6.76 -8.12,-0.38 -16.23,1.68 -22.44,4.87 -5.44,2.8 -12.86,8.36 -15.43,11.88l9.15 10.5z"/>
   </g>
   <path class="fil0" d="M49.35 100.41c1.7,0.3 3.12,0.57 4.18,1.55 0.39,0.36 0.34,0.34 1.06,0.32 0.49,-0.02 0.98,-0 1.48,-0l26.05 -0.24c3.75,-0.04 7.75,-0.21 11.47,-0.13l4.86 -0.07 -1.44 -3.05c-0.14,-0.19 -0.04,-0.08 -0.18,-0.19 -0.04,-0.51 -1.31,-2.31 -1.62,-2.75 -1.88,-2.71 -4.27,-4.69 -7.2,-6.32 -1.9,-1.06 -4.03,-2.56 -6.57,-2.32 -2.3,0.22 -4.79,1.48 -6.84,2.17 -1.11,0.37 -2.17,0.79 -3.27,1.16 -1.11,0.37 -2.24,0.95 -3.59,0.68 -2.58,-0.53 -3.52,-2.35 -6.9,-2.06 -1.8,0.15 -4.86,1.55 -6.72,2.28 -1.09,0.42 -2.16,0.79 -3.33,1.17 -1.14,0.36 -2.38,0.63 -3.46,0.99 -2.48,0.54 -5.06,1.34 -7.53,2.02 -1.12,0.3 -2.42,0.53 -3.57,0.77 -1.79,0.37 -3.22,0.6 -4.93,1.31 -1.51,0.63 -2.91,1.3 -4.31,2.14l5.74 0 1.74 0.02c2.45,0.04 4.94,0.12 7.4,0.21 2.51,0.1 5.02,0.14 7.5,0.36zm1.94 1.72c-0.26,0.57 -2.54,0.74 -3.25,0.84 -0.57,0.09 -1.11,0.21 -1.68,0.35 -0.51,0.13 -1.29,0.25 -1.33,0.75 0.38,0 0.88,-0.18 1.45,-0.19l11.88 -0.07c4.47,-0.04 8.96,-0.13 13.43,-0.13 0.16,0 26.25,-0.29 26.78,-0.41l0.01 -0.33c-0.39,-0.16 -36.99,0.41 -43.67,0.41 -1.36,-0 -5.36,0.11 -6.38,-0.01 0.79,-0.4 3.97,-0.15 3.33,-1.36 -0.53,-1 -5.99,-0.92 -7.27,-0.98 -1.72,-0.08 -11.86,-0.57 -12.73,-0.39 -0.05,0.56 0.18,0.42 0.77,0.44l8.85 0.33c1.69,0.06 3.4,0.11 5.07,0.19 1.08,0.05 4.19,-0.11 4.73,0.55zm-2.64 -9.46c1.36,0.02 3.98,-1.11 5.23,-1.59 1.66,-0.64 3.35,-1.28 5.01,-1.86 2.87,-1.01 4.4,-0.47 6.79,0.76 1.23,0.63 2.43,1.37 4.13,0.73 0.01,-0.43 -1.23,-4.59 -1.44,-5.31 -0.52,-1.76 -1.02,-3.55 -1.71,-5.18 -0.62,-1.47 -1.65,-3.39 -2.61,-4.26 -1.39,-1.26 -3.42,-1.55 -5.11,-0.44 -2.1,1.38 -3.37,3.57 -4.71,5.6 -0.48,0.72 -0.83,1.44 -1.26,2.18 -0.79,1.35 -4.26,8.26 -4.32,9.37z"/>
  </g>
 </g>
</svg>
